<?xml version="1.0" encoding="utf-8"?>
<!-- Generator: Adobe Illustrator 26.4.1, SVG Export Plug-In . SVG Version: 6.00 Build 0)  -->
<svg version="1.1" id="Livello_1" xmlns="http://www.w3.org/2000/svg" xmlns:xlink="http://www.w3.org/1999/xlink" x="0px" y="0px"
	 viewBox="0 0 894 497.1" style="enable-background:new 0 0 894 497.1;" xml:space="preserve">
<path d="M661.3,288c-3.6-12-6.3-24.2-9.4-36.3c-1.8-6.8-2.6-7.2-9.3-5.7c-0.2,0-0.4-0.1-0.7-0.2c-0.3-0.6-0.6-1.3-0.9-2
	c-3.9-9.8-7.3-19.9-11.8-29.4c-13.9-29.3-28.3-58.4-42.5-87.5c-9.5-19.6-21.9-37.1-37.9-51.9c-9.3-8.6-19.4-16.2-31.2-21.2
	c-5.9-2.5-11.6-2.4-17.3,0.5c-4.2,2.2-5.5,4.3-4,8.7c2.5,7.5,5.4,14.9,8.1,22.4c2.2,6,4.4,12.1,6.7,18.1c-0.3,0.1-0.6,0.3-0.9,0.4
	c-1.2-1.4-2.3-2.9-3.7-4.1c-4.3-3.8-8.6-7.6-13.1-11.1c-4.3-3.4-9-3.1-13.8-0.7s-6.1,4.7-4.2,9.7c3.1,8.2,6.6,16.3,10,24.5
	c0.4,1,0.9,2,1.4,2.9c-1.1-0.4-1.7-1-2.2-1.7c-11.1-12.2-22.1-24.6-33.5-36.7c-7-7.4-14.7-14.2-24.8-16.9c-6.8-1.8-13.8-3-20.8-4.1
	c-4.8-0.7-9.3,0.7-13.2,3.6c-2.1,1.6-3.1,3.4-1.4,6.1c1.9,3.1,3.2,6.6,5.1,10.5c-4.2-3.6-7.5-7.1-11.4-9.5c-6-3.7-12.5-6.6-18.8-9.8
	c-10-5.1-19.7-3.1-29.1,1.8c-5,2.6-5.1,3.3-3.9,8.8c0.2,0.7,0.3,1.4,0.3,1.6c-4.8-2.9-9.6-6.3-14.9-8.7c-5.9-2.7-12.2-4.8-18.4-6.6
	c-4.2-1.2-8.8-1.9-13.1-1.8c-7.4,0.3-15.6,8-10.2,17.7c6.2,11.2,11.3,23,16.9,34.6c0.5,1,0.9,2,1.3,3c-1.2-0.7-2-1.6-2.7-2.5
	c-4.7-5.3-9.4-10.6-14-15.9c-1.3-1.5-2.6-3-3.6-4.6c-6.1-9.2-13.7-16.5-24.4-20.2c-4.5-1.6-9-1.7-13.5-0.4
	c-6.7,1.9-10.5,6.7-10.8,13.2c-0.4,7.5,1.1,14.6,4.6,21.4c4.4,8.4,8.3,17,12.4,25.5c0.4,0.8,0.6,1.7,1,2.9c-1.2-0.3-1.9-0.5-2.7-0.6
	c-6.6-0.8-13.3-1.2-19.7,0.9c-4.3,1.4-8.4,3.8-9,8.5c-0.9,7.2-0.4,14.6,2.8,21.4c7,15.2,14.1,30.4,21,45.7c1.7,3.6,3.1,7.3,4.7,11
	c-2.5,1.1-4.7,1.9-6.8,3c-4.1,2.3-4.7,4.3-2.7,8.4c8.4,17.1,16.9,34.1,25.1,51.3c1.7,3.7,2.3,7.9,3.4,11.8c-0.4,0.1-0.8,0.3-1.2,0.4
	c-7.2-13.5-14.3-27.1-21.5-40.6c-0.1,1.2,0.2,2.2,0.5,3.2c7.3,23.3,14.5,46.5,21.8,69.8c2.3,7.5,4,15.3,7.3,22.3
	c6.5,13.5,13.9,26.6,21,39.8c3.1,5.8,8,9.9,13.6,13.1c0.9,0.5,2.1,0.5,3.2,0.4c4.9-0.6,9-4.8,9.4-9.8c1.7-17.9-1.1-35.1-9-51.4
	c-1.8-3.6-3.8-7.1-5.9-11.1c8.5,5.8,15.8,11.9,19,21.5c0.6,1.7,1.4,3.4,2.3,5.1c11.7,22.9,23.5,45.7,34.9,68.6
	c2.9,5.9,7.5,9.7,13.3,11.7c12.6,4.4,20.6-2.4,21.9-13c0.3-2.5,0.5-5,0.5-7.5c0.1-10,0-20,0-30c0.1-0.1,0.3-0.1,0.4-0.2
	c4.5,12.6,9.1,25.1,13.6,37.7c0.4,1,0,2.5-0.5,3.5c-0.9,2.2-0.5,3.8,1.6,5.1c0-1.9,0-3.8,0-6.4c2.4,0.5,4.7,0.8,6.9,1.6
	c6.2,2.3,12.3,1.1,15.8-4.5c4.3-6.8,8.2-13.9,11.2-21.3c2.2-5.4,1.9-11.4-0.1-17.3c-1.9-5.8-3-11.8-4.4-17.8
	c1.6,1.4,2.7,2.9,3.8,4.6c4,5.9,7.6,12.2,12.1,17.7c4.6,5.6,10.1,10.4,15.4,15.4c3.7,3.5,7.6,6.9,11.8,9.7
	c6.5,4.3,15.3,0.1,16.5-7.6c0.4-2.7,0.5-5.4,0.1-8.1c-1-8.3-3.9-16-7.3-23.6c-11.3-25.2-22.4-50.5-33.6-75.8
	c-0.3-0.7-0.5-1.5-0.7-2.2c0.3-0.1,0.6-0.3,0.9-0.4c7.1,12.2,14.5,24.2,21.1,36.7c10.2,19,19.8,38.2,29.8,57.3
	c1.5,2.8,2.9,5.7,4.9,8c7.3,8.4,15.3,16.1,25.8,20.5c1.9,0.8,4.3,1.1,6.2,0.6c6.4-1.6,8.9-5.2,8.9-13c-0.1-11.9,1.3-23.9-1.5-35.7
	c0.4,0.4,0.8,0.8,1,1.3c6.9,14.2,13.7,28.4,20.9,42.4c1.9,3.7,5.3,6.7,8.1,10c0.2,0.3,0.8,0.4,1.2,0.4c4.6,0.6,11.4-4.7,11.5-9.2
	c0.3-16.9,0.3-33.7-5.5-50c-18.2-51.5-40.3-101-70.3-146.8c-3.6-5.5-6.9-11.2-10.3-16.8c0.3-0.2,0.5-0.4,0.8-0.5
	c8.2,10.3,16.4,20.6,25.1,31.6c-1.5-3.8-2.8-6.8-4-9.9c0.4-0.2,0.7-0.3,1.1-0.5c4.9,9.4,9.8,18.8,14.7,28.2
	c-0.3,0.1-0.5,0.3-0.8,0.4c-1.6-2.6-3.3-5.3-4.9-7.9c-0.2,0.1-0.4,0.3-0.6,0.4c4.4,8.7,8.9,17.4,13.3,26.1c0.2-0.1,0.4-0.2,0.5-0.2
	c-1.3-3.2-2.5-6.3-3.8-9.5c0.3-0.1,0.6-0.2,0.9-0.4c7.6,15.6,15.2,31.2,22.7,46.8c-0.3,0.1-0.5,0.3-0.8,0.4
	c-3.8-7.1-7.5-14.1-11.3-21.2c0,1.1,0.4,2.1,0.8,3.1c4,8.3,7.8,16.8,12,25c10.4,20.4,20.9,40.8,31.6,61.2c2.8,5.3,6,10.3,9.3,15.2
	c1,1.4,3,3,4.6,3c7.7,0.1,12.6-6.9,10.2-14.1c-0.6-1.8-1.3-3.5-2-5.2c-7.1-16.3-14.3-32.4-21.2-48.8c-3.8-9.2-7-18.6-10.5-27.9
	c0.3-0.1,0.6-0.3,1-0.4c0.5,1,1.1,2.1,1.6,3.1c10,20.4,19.9,40.9,30.1,61.2c4.9,9.7,10.3,19.2,15.4,28.8c1.3,2.5,3.1,4.2,6.2,3.7
	c4.9-0.7,9.3-4.3,10.4-9.1c0.6-2.7,1-5.6,1-8.4c0.3-15.1-2.8-29.5-9.2-43c-11.2-23.6-22.8-47-34.1-70.5
	c-8.2-17.2-17.5-33.8-27.9-49.8c-14-21.4-26.9-43.5-34.6-68.1c-0.3-0.9-0.6-1.9-1-3.3c5.5,1.8,9.5,4,12.1,9.3
	c18.8,39.5,37.9,78.9,57.1,118.2c4.8,9.9,8.9,20,16.9,28.4c6.1,6.3,9.7,14.9,14.3,22.5c1.3,2.1,2.4,4.3,3.6,6.5
	c0.2-0.1,0.3-0.1,0.5-0.2c-1.1-3.7-2.2-7.3-3.3-11c0.2-0.1,0.4-0.2,0.6-0.2c4.6,9.2,9.3,18.4,14.1,27.8c3.8-1.8,7.2-3.3,10.6-5
	c2.8-1.3,3.3-3.2,1.8-6.1C673,321,666.4,304.8,661.3,288z M226.4,151.4c2.6,5.9,5.3,11.8,7.9,17.6
	C229.3,164.3,228.2,157.7,226.4,151.4z M359.5,364.4c10.3,11.8,16.9,25.6,20.7,40.8C371.5,392.4,365.6,378.3,359.5,364.4z
	 M384.4,378.2c-1.5-1.8-3.5-3.4-4.6-5.4c-3.2-6.1-6.4-12.3-9-18.7c-5.2-13-10.1-26.1-15.1-39.2c-0.2-0.5-0.3-1-0.5-1.4
	c0.2-0.1,0.4-0.2,0.5-0.3c3.5,4.1,7,8.2,10.3,12.5c0.8,1,0.8,2.7,0.8,4c-0.2,7,1.4,13.3,4.7,19.6c4.5,8.4,8.2,17.2,12.3,25.9
	c0.4,0.9,0.7,1.7,1.1,2.6C384.8,377.8,384.6,378,384.4,378.2z M385.6,321.3c-2.8-6.7-5.7-13.4-8.5-20.1c0.5-0.2,1-0.4,1.5-0.6
	C383.1,306.6,386.9,312.9,385.6,321.3z M424.2,395.1c-7.2-13.3-14.4-26.7-21.7-40c0.2-0.1,0.5-0.3,0.7-0.4
	c9.5,12.1,16.1,25.7,21.7,39.9C424.7,394.8,424.4,395,424.2,395.1z M435.6,272.7c-1.7-2.2-3.5-4.3-5.2-6.5c-2.6-3.3-5-6.7-7.6-10
	c-4.9-6-9.8-12-15-17.7s-10.9-10.9-16-16.6c-3.3-3.7-5.8-8-8.9-12c-2.8-3.7-5.7-7.4-8.9-10.7c-5.8-5.9-10.3-12.5-13.7-20.1
	c-1.7-3.9-4.7-7.3-7.1-10.9c-1.2-1.9-2.6-3.7-3.8-5.5c0.2-0.2,0.4-0.4,0.5-0.6c2.8,2,5.7,3.8,8.3,5.9c5.8,4.7,11.3,9.9,17.4,14.2
	c9.8,7,16.6,16.4,22.7,26.5c4.5,7.3,9.3,14.4,13.6,21.8c8,13.6,15.8,27.3,23.6,40.9C435.9,271.7,435.9,272.1,435.6,272.7z
	 M437.9,198.3c-2.8-4.1-5.6-8.3-8.4-12.4c0.2-0.1,0.4-0.3,0.6-0.4c2.8,4.1,5.6,8.2,8.4,12.3C438.3,197.9,438.1,198.1,437.9,198.3z
	 M461.4,362.5c1.9,3.4,3.8,6.8,5.7,10.2c-0.3,0.2-0.6,0.3-0.8,0.5c-1.9-3.4-3.7-6.9-5.6-10.3C460.9,362.8,461.1,362.7,461.4,362.5z
	 M496.7,325.5c-3.5-3.3-6.9-6.6-10.4-10c0.2-0.2,0.5-0.5,0.7-0.7c3.6,3.2,8.2,5.3,10.7,9.6C497.3,324.7,497,325.1,496.7,325.5z
	 M581.5,301.5c2.5,1.8,2.6,5.1,4.4,7.3c-0.2,0.1-0.4,0.3-0.7,0.4c-1.6-2.3-3.2-4.6-4.8-6.9C580.8,302,581.2,301.7,581.5,301.5z
	 M561.7,227.2c3.3,6.9,6.6,13.7,9.9,20.6c-0.3,0.1-0.6,0.3-0.9,0.4c-3.3-6.8-6.7-13.7-10-20.5C561.1,227.5,561.4,227.3,561.7,227.2z
	 M662.3,297.3c-8.1-16.3-16.2-32.6-24.3-48.9c0.5-0.4,0.8-0.7,1.2-0.8c0.8-0.3,1.6-0.6,2.5-0.9c7.1,16.8,14.2,33.6,21.3,50.3
	C662.7,297.1,662.5,297.2,662.3,297.3z"/>
</svg>
