<?xml version="1.0" encoding="utf-8"?>
<!-- Generator: Adobe Illustrator 26.4.1, SVG Export Plug-In . SVG Version: 6.00 Build 0)  -->
<svg version="1.1" id="Livello_1" xmlns="http://www.w3.org/2000/svg" xmlns:xlink="http://www.w3.org/1999/xlink" x="0px" y="0px"
	 viewBox="0 0 894 497.1" style="enable-background:new 0 0 894 497.1;" xml:space="preserve">
<g>
	<path d="M544.4,322.1C544.4,322.1,544.4,322.1,544.4,322.1C544.4,322,544.4,322,544.4,322.1C544.4,322,544.4,322.1,544.4,322.1z"/>
	<path d="M547.3,149.1c-0.1,0-0.3,0-0.4,0c0,0,0,0,0,0.1C547,149.2,547.2,149.2,547.3,149.1C547.3,149.1,547.3,149.1,547.3,149.1z"
		/>
	<path d="M561.5,166.6c0-0.2,0-0.4,0-0.5c-0.1,0.1-0.2,0.1-0.2,0.2C561.3,166.4,561.4,166.5,561.5,166.6z"/>
	<path d="M544.7,319.9c-0.1-0.1-0.2-0.2-0.3-0.3c0,0.2,0,0.3,0,0.5C544.5,320,544.6,319.9,544.7,319.9z"/>
	<path d="M546.8,148.8c0.1,0.1,0.3,0.1,0.4,0.2c-0.2-0.2-0.4-0.3-0.6-0.5C546.7,148.6,546.7,148.7,546.8,148.8z"/>
	<path d="M545.4,148.2c-0.2,0-0.5,0-0.7,0c0.1,0,0.1,0,0.2,0C545.1,148.2,545.2,148.2,545.4,148.2z"/>
	<path d="M557,108.1c-7.5-2.6-15.3-2.9-23.2-2.5c-14.8,0.9-29.6,1.5-44.4,1.6c-3,0-4.6-0.4-5.5-3.8c-1.7-6.5-6.2-11-12.9-12.6
		c-10.4-2.5-21-3.4-31.7-2.5c-9.8,0.9-17.6,7-18.6,15.3c-0.5,4.2-2.2,4.7-5.6,4.6c-22-0.1-44,0-65.9,0.1c-2,0-4-0.2-5.8,1
		c-9.2,6-12.6,22.5-5.6,31.1c2.8,3.5,3.7,6.7,3.7,10.6c4.1,1.1,6.3-2.1,9.1-4l0,0v0c52.7,4.6,105.6,3.6,158.4,3.3
		c2.5,0,5-0.2,7.5-0.2c1.5-1.6,3.4-1,5.2-0.9c3.8,0.2,7.3-0.1,9.7-3.6c0.4-0.5,1.2-1.2,1.6-1.1c5.8,2.2,12.8-1.7,18,3.6
		c3.7,3.8,7.6,7.3,11.5,11c0.1-4,0.4-8,0.1-12c-0.2-2.1,0.4-3.2,1.9-4.6C577.3,130.6,573.6,113.9,557,108.1z M430.4,104.3
		c1.8-3.1,4.4-4.9,8-5.2c9.9-1,19.6,0.8,29.2,2.6c2.3,0.4,4.3,2.3,4,4.5c-0.3,2.5-3,1.2-4.6,1.3c-5.7,0.2-11.3,0.1-17,0.1
		c0,0.2,0,0.4,0,0.5c-5.8,0-11.6-0.1-17.5,0C429,108.2,428.9,106.9,430.4,104.3z M555,133.9c-3.1,2-6.5,3.2-10.3,3.3
		c-55.3,1.4-110.6,1.4-165.9-0.3c-9.6-0.3-19.3-1.1-28.8-2.5c-2.3-0.3-3.5-1.3-4-3.6c-0.6-3.3-1.7-6.6,0-9.7
		c0.8-1.4,2.8-0.8,4.2-0.7c32.3,0.6,64.6,0.1,95.2-0.4c30.9-0.8,60-0.2,89.2-2.2c6.1-0.4,12.3-0.2,18.3,1.7c3.5,1.1,6.6,2.8,7.2,6.8
		C560.6,129.9,557.9,132.1,555,133.9z"/>
	<path d="M555.3,328.2c0.2-3.2-1.8-4-4.3-4.2c-1.7-0.1-3.2,0.3-1.7,2.5c0.6,0.8,2.3,1.5,0.9,2.8c-1.5,1.4-2.3-0.3-3.2-1.1
		c-0.9-0.7-1.8-1.5-2.6-2.2c-0.2,0.2-0.2,0.5-0.2,0.8c1.2,3.2,4.3,6.5-0.7,9.2c-0.9,9.1-2,18.2-2.7,27.3
		c-1.7,20.6-15.5,29.8-32.7,32.5c-8.9,1.4-17.8,2.4-26.8,2.2c-23.1-0.3-46.3,1.7-69.4-0.1c-5.3-0.4-10.5-1.4-15.7-2.7
		c-16.5-4.2-26.2-15-30.3-31.1c-0.4-1.4-0.2-3-1.4-4.2c-4.6-0.5-6.5-4.7-9.7-7.1c-1.3-1-1.7-3.7-4.4-2.7c0,0,0,0,0,0
		c0.1,8.1,2.1,15.8,4.7,23.4c5.3,15,14.7,26.2,30.1,31.8c9,3.3,18.2,5.3,27.7,5.9c26.8,1.5,53.6,0,80.3-0.7
		c8.6-0.2,17.3-1.3,25.6-3.7c16.5-4.9,28.4-14.8,32.2-32.1c3-13.3,4.2-26.9,4.4-40.6c0.4-1.3,0.5-2.7,0.5-4c-0.1,1.3-0.3,2.7-0.5,4
		C555.3,332.2,555.1,330.2,555.3,328.2z"/>
	<path d="M359.9,308.8c-0.1-1.4-0.2-2.7-0.4-4.1c-1-21.4-2-42.8-3.1-64.2c-1.5-28.4-2.4-56.7-5-85c-0.2-2.2-0.5-4.3-0.8-6.5
		c-1.1,0.3-2,1.3-3,1.9c-2.1,1.3-4.2,1.9-6.4,0.2c-0.8,3.8-0.7,7.6-0.6,11.4c0.5,42.6,2.8,85.2,5,127.7c0.6,12.3,0.6,24.6,2.6,36.8
		C355,322.4,359.8,316.8,359.9,308.8z M347,189.9c-2.1,0.1-3.4-1.4-3.4-3.4c0-1.8,1.5-2.4,3.1-2.4c1.8,0,3.2,0.5,3.5,2.7
		C349.9,188.5,348.9,189.9,347,189.9z M352,178.1c-0.8,1.5-2.5,1.3-3.5,0.8c-2.3-1.3-6-1.9-4.3-6.3c0.6-1.6,0.2-3.5-0.9-5.1
		c-2.6-3.8-1.8-7.6,2.2-9.7c2.2-1.2,4.4-1.4,5,2.2c0.3,1.9,1.1,3.8,0.8,5.1c-0.1,2.4,0.2,4-1,5.5c-1.5,1.8-1.1,3.3,0.7,4.6
		C352.3,175.8,352.6,176.9,352,178.1z"/>
	<path d="M347.7,150.9c1-0.6,1.8-1.6,3-1.9c-0.1-0.6-0.2-1.3-0.2-1.9l0,0c-2.8,1.9-5,5.1-9.1,4C343.5,152.8,345.6,152.2,347.7,150.9
		z"/>
	<path d="M561.2,166.3c-4.1,3.7-7.5,6.8-10.9,9.8l0,0v0c-0.2,1.5-0.6,2.9-0.6,4.4c-1,41.3-2.4,82.6-4.5,123.9c-0.1,1.5,0,3,0,4.5
		c-1.2,6.4,5.9,7.7,7.6,12.3c0.2,0.5,1.4,1,2.1,0.1c0.6-0.7,0.4-1.8-0.3-2.2c-7.2-5.2-5.5-9.5,1.1-13.6c1.3-0.8-0.2-3.3,1.6-4.4
		c2-37.2,3.3-74.5,4.1-111.7c0-7.3,0-14.5,0-22.7C561.4,166.5,561.3,166.4,561.2,166.3z"/>
	<path d="M354.3,350.8c3.1,3,6.1,6.2,9.9,8.4c-2.2-14.6-2.8-29.3-3.9-44c-1.4,5.3-6.2,8.5-10.6,11.9c-0.4,0.3-1,0.1-1.4,0
		c0.2,7.7,0.6,15.5,1.9,23.1c0,0,0,0,0,0C352.1,348.8,352.2,348.7,354.3,350.8z"/>
	<path d="M354.6,352.9c3.2,2.4,5.1,6.6,9.7,7.1c0-0.3-0.1-0.5-0.1-0.8c-3.8-2.2-6.8-5.3-9.9-8.4c-2.2-2.1-2.3-2-4.1-0.7
		C352.9,349.2,353.3,351.9,354.6,352.9z"/>
	<path d="M349.8,327.1c4.4-3.4,9.2-6.6,10.6-11.9c-0.2-2.1-0.3-4.2-0.5-6.4c0,8-4.9,13.5-11.5,18.2
		C348.8,327.2,349.4,327.4,349.8,327.1z"/>
	<path d="M546.8,148.8c0-0.1-0.1-0.2-0.2-0.2c-0.4-0.2-0.8-0.3-1.2-0.4c-0.2,0-0.3,0-0.5,0C545.7,148.4,546.3,148.6,546.8,148.8z"/>
	<path d="M547.3,149.1C547.3,149.1,547.3,149.1,547.3,149.1C547.3,149.1,547.3,149.1,547.3,149.1
		C547.3,149.1,547.3,149.1,547.3,149.1C547.3,149.1,547.3,149.1,547.3,149.1z"/>
	<path d="M557.6,156.7c-2.7-2.5-5.2-5.2-7.8-7.7c-1.6-1.6-3.5-2.8-5.8-2.4c-2.6,0.5-4.9,0.3-7.3-0.7c-1.4-0.6-3.2-0.7-4.2,0.6
		c-2.2,2.5-4.8,3.5-7.6,3.9c7.4,0.1,14.7,0.1,22-1.1c0,0,0,0,0-0.1c-4.9,0-9.8,0-14.8,0c0.1-0.7,0-1.2,0.1-1.3
		c1.3-1,8.4-0.6,12.4,0.3c0.2,0,0.5,0,0.7,0c0.5,0,0.9,0.1,1.2,0.4c0.2,0.1,0.4,0.3,0.6,0.5c0.1,0,0.1,0.1,0.2,0.1c0,0,0,0,0,0l0,0
		c2.8-0.2,3.1,1.5,3,3.7c-0.1,7.3-0.1,14.6-0.1,21.9c2.5-2.9,5.2-5.6,8.2-7.9c1.2-0.9,2.2-1.2,2.7-0.6c0.1-0.1,0.2-0.1,0.2-0.2
		c0,0.2,0,0.4,0,0.5c0.2,0.4,0.3,1.1,0.3,1.9c-0.2,6.9,0.4,13.9-0.3,20.8c1.4-10.1,0.9-20.2,0.8-30.3
		C560,159.6,558.9,157.9,557.6,156.7z M559.5,164.3c-1.6,2.2-3.7,3.2-6.4,2.6c-2.8-0.6-1.7-2.8-1.8-4.4c-0.2-2.8,0-5.6,0-8.4
		c0.5-0.4,1-0.8,1.5-1.1c1.8,2.1,3.5,4.2,5.3,6.3C559.4,160.8,561.2,162,559.5,164.3z"/>
	<path d="M545.4,148.2c0.4,0,0.8,0.2,1.2,0.4C546.3,148.3,545.9,148.2,545.4,148.2z"/>
	<path d="M532.8,144.5c-0.3-0.1-1.2,0.6-1.6,1.1c-2.4,3.5-5.9,3.8-9.7,3.6c-1.7-0.1-3.7-0.7-5.2,0.9c2.8,0,5.7,0.1,8.5,0.2
		c2.8-0.3,5.4-1.3,7.6-3.9c1.1-1.2,2.8-1.2,4.2-0.6c2.4,1,4.8,1.2,7.3,0.7c2.3-0.4,4.2,0.8,5.8,2.4c2.6,2.6,5.1,5.2,7.8,7.7
		c1.3,1.2,2.4,2.9,4.6,2.4c-3.8-3.7-7.7-7.2-11.5-11C545.5,142.8,538.6,146.7,532.8,144.5z"/>
	<path d="M550.3,176.1c3.4-3.1,6.8-6.1,10.9-9.8c-0.6-0.6-1.6-0.3-2.7,0.6c-3,2.3-5.7,5-8.2,7.9
		C550.3,175.2,550.3,175.6,550.3,176.1L550.3,176.1z"/>
	<path d="M561.8,168.5c0-0.9-0.1-1.5-0.3-1.9c0,8.2,0,15.5,0,22.7C562.2,182.4,561.6,175.5,561.8,168.5z"/>
	<path d="M552.9,309.8c-2.3,1.5-2.1,3.3-0.1,5.3c1.8,1.8,4.7,4.6,2.2,6.6c-2.8,2.3-4-1.9-5.9-3.3c-2.3-1.6-3.9-3.5-4.7-5.7
		c-0.2,2.2,0,4.5,0,6.8c0.1,0.1,0.2,0.2,0.3,0.3c0.8-0.7,1.2-2.2,2.8-1.5c0.8,0.4,1,1.3,0.6,2c-0.8,1.4-1.6,2.9-3.6,1.7
		c0,0,0,0-0.1,0.1c0,1.2,0,2.5-0.1,3.7c1.7,0.3,3.8,1.8,4.2-1.9c0.1-1.2,2.5-1.1,4-0.7c1.6,0.4,3.2,1.1,3.2,3.2
		c0,1.2,0.1,2.5,0.1,3.7c1-9.7,1.5-19.4,1.5-29.1C556.8,304.5,556.1,307.7,552.9,309.8z M554.6,313.6c-0.8,0.4-1.7-0.2-1.9-1
		c-0.3-2.2,1.4-2.9,3.3-4.1C556.3,310.8,556.7,312.7,554.6,313.6z"/>
	<path d="M552.5,323.2c-1.5-0.4-3.9-0.4-4,0.7c-0.4,3.7-2.4,2.1-4.2,1.9c0,0.1,0,0.1,0,0.2c0.9,0.7,1.7,1.5,2.6,2.2
		c1,0.8,1.8,2.5,3.2,1.1c1.4-1.3-0.4-2-0.9-2.8c-1.5-2.3-0.1-2.7,1.7-2.5c2.5,0.2,4.5,1,4.3,4.2c-0.1,2,0.1,3.9,0.1,5.9
		c0.2-1.3,0.3-2.7,0.5-4c0-1.2-0.1-2.5-0.1-3.7C555.7,324.3,554.1,323.7,552.5,323.2z"/>
	<path d="M555.8,305.5c-6.6,4.1-8.3,8.4-1.1,13.6c0.7,0.5,0.8,1.5,0.3,2.2c-0.7,0.9-1.9,0.4-2.1-0.1c-1.7-4.6-8.9-5.9-7.6-12.3
		c-0.5,1.3-0.7,2.6-0.8,4c0.8,2.2,2.3,4.1,4.7,5.7c2,1.4,3.2,5.6,5.9,3.3c2.4-2.1-0.4-4.8-2.2-6.6c-2-2-2.1-3.8,0.1-5.3
		c3.2-2.2,3.9-5.4,4.5-8.8C555.6,302.1,557.1,304.6,555.8,305.5z"/>
	<path d="M515.3,349C515.2,349,515.2,348.9,515.3,349C515.2,349,515.2,349,515.3,349C515.2,349,515.2,349,515.3,349z"/>
	<path d="M352,148.9c19.7,1.6,39.4,2.8,59.2,2.8c8.6,0,17.2,0.4,25.9,0.8c25.9,1.1,51.8-0.6,77.7-1.1c0.9-0.1,1.7-0.4,2.5-0.6
		c-0.3-0.2-0.7-0.4-1-0.6c-2.5,0.1-5,0.2-7.5,0.2c-52.8,0.3-105.7,1.3-158.4-3.3v0c0.4,0.6,0.7,1.2,1,1.8
		C351.6,148.9,351.8,148.9,352,148.9z"/>
	<path d="M543.6,327c0.1,0.4,0.2,0.7,0.3,1.1c0.1-0.4,0.2-0.8,0.3-1.3c-0.1-0.3,0-0.6,0.2-0.8c0,0-0.1-0.1-0.1-0.1
		C543.9,326.2,543.7,326.6,543.6,327z"/>
	<path d="M542.3,337c-1.7,7.3-1.7,14.9-2.4,22.3c-2,20.6-10.4,30.7-29.7,34.6c-6.2,1.3-12.5,2.5-18.8,2.4c-22.5-0.2-44.9,1.2-67.4,1
		c-8.4-0.1-16.9-0.9-25.3-2.9c-15.8-3.7-26.3-12.9-30.9-28.7c-0.6-2.1-0.9-4.3-2.3-6c-0.2-0.1-0.5-0.2-0.7-0.4
		c-0.1,0.2-0.3,0.3-0.4,0.5c1.2,1.1,1.1,2.7,1.4,4.2c4.2,16.2,13.9,27,30.3,31.1c5.2,1.3,10.4,2.3,15.7,2.7
		c23.1,1.8,46.3-0.2,69.4,0.1c9,0.1,17.9-0.9,26.8-2.2c17.2-2.6,31-11.9,32.7-32.5c0.8-9.1,1.8-18.2,2.7-27.3c0-0.3,0-0.6,0-0.8
		C543.1,335.8,542.7,336.4,542.3,337z"/>
	<path d="M359.5,304.7c0.5,0.2,0.9,0.4,1.3,0.7c0-0.5,0.1-1,0.1-1.5c0.4-8.3-0.5-16.6-0.9-24.9c-0.7-15.8-1.5-31.6-2.3-47.3
		c-1.1-22.6-2.3-45.2-3.9-67.7c-0.4-5.1,0-10.4-2.4-15.1c-0.3,0-0.6,0.1-0.8,0.1c0.3,2.2,0.6,4.3,0.8,6.5c2.5,28.3,3.5,56.7,5,85
		C357.5,261.9,358.5,283.3,359.5,304.7c0.1,1.4,0.2,2.7,0.4,4.1C359.9,307.5,359.8,306.2,359.5,304.7z"/>
	<path d="M351.4,148.9c-0.3-0.6-0.6-1.2-1-1.8c0.1,0.6,0.2,1.3,0.2,1.9C350.9,148.9,351.2,148.9,351.4,148.9z"/>
	<path d="M549,176.3c-1.6,2.8-1.4,5.8-1.3,8.8c0.5,18.8-0.8,37.6-1.3,56.3c-0.6,22.1-2,44.1-2.6,66.2c-0.1,0.9-0.1,1.7,0,2.5
		c0.3-0.4,0.8-0.9,1.4-1.3c0-1.5,0-3,0-4.5c2.1-41.3,3.5-82.6,4.5-123.9c0-1.5,0.4-2.9,0.6-4.4v0c-0.2-0.2-0.4-0.5-0.5-0.7
		C549.5,175.7,549.3,176,549,176.3z"/>
	<path d="M365.6,355.4c-2.3-15.5-3.2-31-3.8-46.6c0-1.2-0.1-2.5-1-3.3c-0.1,1.5-0.2,2.9,0,4.4c0.2,2,0.1,3.8-0.3,5.3
		c1.1,14.7,1.7,29.4,3.9,44c0.2,0.1,0.4,0.2,0.6,0.3C365.8,358.3,365.8,356.8,365.6,355.4z"/>
	<path d="M364.3,359.2c0,0.3,0.1,0.5,0.1,0.8c0.2-0.2,0.3-0.3,0.4-0.5C364.6,359.4,364.5,359.3,364.3,359.2z"/>
	<path d="M360.7,309.9c-0.2-1.5-0.1-2.9,0-4.4c-0.3-0.3-0.7-0.6-1.3-0.7c0.3,1.4,0.4,2.8,0.4,4.1c0.2,2.1,0.3,4.2,0.5,6.4
		C360.8,313.6,361,311.9,360.7,309.9z"/>
	<path d="M547.3,149.1c0.2,0.2,0.4,0.5,0.6,0.9c1.8,6.3,0.6,12.7,1,19.1c0.1,2.1-0.3,4.4,0.9,6.3c0.2-0.2,0.4-0.4,0.5-0.6
		c0-7.3,0-14.6,0.1-21.9C550.4,150.6,550.2,148.9,547.3,149.1C547.3,149.1,547.3,149.1,547.3,149.1
		C547.3,149.1,547.3,149.1,547.3,149.1z"/>
	<path d="M519.7,150.4c-0.8,0-1.6,0.1-2.4,0.3c3.3,1.8,7,0.9,10.5,0.8c6.3-0.2,12.8,1.2,19-1.1c0.1-0.6,0.2-1,0.1-1.3
		c-7.3,1.2-14.7,1.3-22,1.1C523.2,150.5,521.4,150.5,519.7,150.4z"/>
	<path d="M519.7,150.4c1.8,0.1,3.5,0.1,5.2-0.1c-2.8-0.1-5.7-0.1-8.5-0.2c0.3,0.2,0.6,0.4,1,0.6
		C518.1,150.6,518.9,150.4,519.7,150.4z"/>
	<path d="M550.3,176.1c0-0.4,0-0.9,0-1.3c-0.2,0.2-0.4,0.4-0.5,0.6C549.9,175.6,550.1,175.9,550.3,176.1z"/>
	<path d="M544.2,325.9c0,0,0.1-0.1,0.1-0.1c0,0,0,0,0,0c0-1.2,0-2.5,0.1-3.7c-0.2,0.2-0.5,0.4-0.8,0.6
		C543.3,323.9,543.3,325,544.2,325.9z"/>
	<path d="M543.3,318.7c0.4,0.3,0.8,0.6,1.1,0.9c0-2.3-0.2-4.5,0-6.8c-0.3-0.8-0.5-1.7-0.6-2.7C541.9,312.7,543.2,315.8,543.3,318.7z
		"/>
	<path d="M544.2,325.9c0,0,0.1,0.1,0.1,0.1c0-0.1,0-0.1,0-0.2c0,0,0,0,0,0C544.3,325.9,544.3,325.9,544.2,325.9z"/>
	<path d="M543.8,310.1c0.1,0.9,0.3,1.8,0.6,2.7c0.1-1.3,0.3-2.7,0.8-4C544.6,309.3,544.2,309.7,543.8,310.1z"/>
	<path d="M544.1,328.9c0.1,0.7,0.2,1.4,0.3,2.1C544.3,330.3,544.2,329.6,544.1,328.9z"/>
	<path d="M544.1,328.9c0.2,0.7,0.2,1.4,0.3,2.1c0.2,1.7,0.3,3.4-0.9,5c5-2.7,1.9-6,0.7-9.2C544,327.5,544,328.2,544.1,328.9z"/>
	<path d="M544.1,328.9c-0.1-0.2-0.1-0.5-0.2-0.7c-0.5,2.3-0.6,4.7-0.5,7.1c0.7-1.4,1-2.8,0.9-4.2
		C544.3,330.3,544.1,329.6,544.1,328.9z"/>
	<path d="M544.1,328.9c-0.1-0.7-0.1-1.3,0.1-2c-0.1,0.4-0.2,0.8-0.3,1.3C544,328.4,544,328.6,544.1,328.9z"/>
	<path d="M544.4,331c0,1.4-0.2,2.9-0.9,4.2c0,0.3,0,0.6,0,0.8C544.7,334.5,544.6,332.7,544.4,331z"/>
	<path d="M351.2,175.1c-1.9-1.3-2.3-2.8-0.7-4.6c1.2-1.4,0.9-3.1,1-5.5c0.2-1.3-0.5-3.2-0.8-5.1c-0.6-3.6-2.8-3.3-5-2.2
		c-4,2.1-4.9,5.9-2.2,9.7c1.2,1.7,1.6,3.5,0.9,5.1c-1.7,4.4,2,4.9,4.3,6.3c1,0.6,2.7,0.7,3.5-0.8
		C352.6,176.9,352.3,175.8,351.2,175.1z"/>
	<path d="M346.7,184.1c-1.7,0-3.1,0.6-3.1,2.4c0,2,1.3,3.5,3.4,3.4c1.8-0.1,2.8-1.4,3.2-3.2C350,184.6,348.6,184,346.7,184.1z"/>
	<path d="M552.8,153c-0.5,0.4-1,0.8-1.5,1.1c0,2.8-0.1,5.6,0,8.4c0.1,1.6-1,3.9,1.8,4.4c2.7,0.6,4.8-0.4,6.4-2.6
		c1.7-2.3-0.1-3.6-1.4-5C556.3,157.2,554.5,155.1,552.8,153z"/>
	<path d="M547.2,149c-0.1-0.1-0.2-0.1-0.4-0.2c0.1,0.1,0.1,0.2,0.1,0.4c0.1,0,0.3,0,0.4,0C547.2,149.1,547.2,149,547.2,149z"/>
	<path d="M536,147.8c2.9,0.9,5.4,1,8,0.5c0.3,0,0.6-0.1,0.9-0.1c-0.1,0-0.1,0-0.2,0c-0.3,0-0.7,0.1-1,0.1
		C541.2,148.9,538.8,148.6,536,147.8z"/>
	<path d="M547.3,149.1C547.3,149.1,547.3,149.1,547.3,149.1C547.3,149.1,547.3,149.1,547.3,149.1
		C547.3,149.1,547.3,149.1,547.3,149.1z"/>
	<path d="M547.3,149.1c0,0-0.1-0.1-0.2-0.1C547.2,149,547.2,149.1,547.3,149.1C547.3,149.1,547.3,149.1,547.3,149.1z"/>
	<path d="M544.9,148.2c-0.3,0-0.6,0.1-0.9,0.1c-2.6,0.5-5.1,0.4-8-0.5c2.8,0.7,5.2,1,7.7,0.5c0.3-0.1,0.7-0.1,1-0.1
		c-4-0.9-11.2-1.3-12.4-0.3c-0.2,0.1-0.1,0.6-0.1,1.3c5,0,9.9,0,14.8,0c0-0.1-0.1-0.3-0.1-0.4C546.3,148.6,545.7,148.4,544.9,148.2z
		"/>
	<path d="M547.3,149.1L547.3,149.1C547.3,149.1,547.3,149.1,547.3,149.1C547.3,149.1,547.3,149.1,547.3,149.1z"/>
	<path d="M552.8,312.6c0.1,0.8,1,1.4,1.9,1c2-1,1.7-2.8,1.4-5.2C554.2,309.7,552.4,310.4,552.8,312.6z"/>
	<path d="M544.4,322C544.4,322,544.4,322,544.4,322c0.9-0.8,0.9-1.5,0.3-2.2c-0.1,0.1-0.2,0.1-0.3,0.2
		C544.9,320.7,544.9,321.4,544.4,322z"/>
	<path d="M544.5,322.1c2,1.2,2.8-0.2,3.6-1.7c0.4-0.8,0.2-1.7-0.6-2c-1.5-0.7-1.9,0.8-2.8,1.5C545.3,320.5,545.3,321.3,544.5,322.1z
		"/>
	<path d="M544.4,320c0,0.7,0,1.3,0,2C544.9,321.4,544.9,320.7,544.4,320z"/>
	<path d="M467.8,350.2c0.3-25.3-0.3-50.6-1.2-75.9c0-4.5,0-9,0-13.5c-0.1-25.3,0-50.6-1.1-75.9c-0.1-3.3-0.3-6.7-1.3-9.9
		c-1.9-6.2-6.6-9.7-12.9-9.8c-11.1-0.1-22.1,10-22.2,20.9c-0.1,10,0.3,20,1,29.9c1.7,27.4,4,54.8,5.5,82.2
		c1.1,20.4,1.5,40.9,2.1,61.4c0.3,11.3,7.7,18.6,18.2,17.8c7.9-0.6,12.5-6,12.1-13.8C467.8,359.2,467.7,354.7,467.8,350.2z
		 M453.8,365.5c-1.8,0.2-3.2-0.9-3.8-2.6c-0.4-1.1-0.4-2.3-0.5-3.4c-1.6-26.2-1-52.6-2.9-78.8c-2.4-32.5-4.7-65-7-97.5
		c-0.1-2.1-1.7-5,1.2-6.2c3.5-1.5,7.5-2.8,11.1-0.8c2.8,1.5,2.4,5.1,2.2,7.8c-0.9,13.2,0.7,26.3,0.6,39.4c-0.1,16.6,0,33.3,0,46.3
		c1,33.2,0.6,62.9,0.6,92.5C455.2,363.2,456.2,365.3,453.8,365.5z"/>
	<path d="M390.2,352.2c-0.2-1.5-0.4-2.9-0.5-4.4C389.7,349.3,389.8,350.7,390.2,352.2z"/>
	<path d="M403.3,357.3c-1.3-50.7-3.3-101.5-3.9-152.2c-0.1-9.3-1-18.6-1.9-27.9c-0.9-8.9-7-13.4-15.7-11.5
		c-9.4,2-14.2,6.9-14.5,16.2c-0.1,3-0.1,6-0.1,9c-0.2,25.3,2.7,50.5,3.3,75.8c0.3,15.5,1.2,30.9,1.9,46.4c2.8,0.5,5.6-1.9,8.6,0.4
		c1,0.8,1.4-0.9,1.4-1.9c-0.4-8.1,0.1-16.2-0.6-24.3c-0.9-10.1-0.3-20.2-0.3-30.4c0,0,0,0,0,0c-1.2-25.4-1.1-50.9-4.8-76.1
		c-1-6.8-0.3-7.7,5.7-7.5c3.6,0.1,4.4,1.7,4.4,5c-0.6,47.3,1.3,94.5,2.7,141.8c0.1,0.1,0.3,0.2,0.3,0.4c3.1,5.9,7.8,11.1,1,18.4
		c-0.3,0.4-0.6,0.8-0.8,1.3c-0.1,1.3-0.1,2.5-0.1,3.8c0,0.8,0,1.6-0.1,2.5c0.2,2,0.5,4.1,0.4,5.9c0.1,4,0.2,7.9,0.3,11.9
		c0,1,0.7,2.6-1,2.8c-1.5,0.1-1.6-1.5-1.8-2.5c-0.6-4.4-0.9-8.9-1.4-13.3c-2-2.4-0.4-5.5-1.6-8.7c-3.5,4.1-8.5,6.3-9.5,11.9v0
		c-0.1,4.5,0.5,9,1.4,13.4c1,5.2,3.2,9.7,8.8,11c6.3,1.4,12.1-0.7,17.3-4.3c1.9-1.3,1.6-3.5,1.4-5.5
		C403.9,364.9,403.4,361.1,403.3,357.3z"/>
	<path d="M525,356.8c-5.6,1.1-6.7,7.7-11.7,9.2c-2.9,2.5-2.7,0.2-2.6-1.7c0.3-7.6,0.9-15.3,1-22.9c1-44.1,1.9-88.1,2.8-132.2
		c0.2-11.3,1-22.6-0.1-33.9l0,0l0,0v0v0c0.9-3.3,3.5-6.9-1.4-9.3c-6.7,1.8-9,5.4-9.6,14.8c-1.8,25.2-1.7,50.5-2.6,75.8
		c-1.4,36.6-1.3,73.2-3.3,109.7c-0.4,7.9,0.1,9,7.7,11.4c1.9,0.6,3.8,1.2,5.8,1.4c5.4,0.7,9.9-1.8,12.3-6.7c1.4-2.9,2.1-5.9,2.2-9.1
		c0,0,0,0,0,0c0,0,0,0,0,0C525.3,361.1,525.2,359,525,356.8z"/>
	<path d="M533.3,200.5c1.7-6.4-3.3-8.5-6.8-11.6c-1.7-1.5-2.1,0.6-3.1,1.2c-1.2,18.9-2.8,37.8-3.6,56.7c-1.2,29-1.5,58.1-3.7,87.1
		c0,0,0,0,0,0c0.1,1.1,0.2,2.3,0.2,3.4c0,9.1,0,9.1,7.2,13.7c1.7,1.1,1.8-0.8,2.7-0.9c0-1,0-2,0.1-3c-1.4-1.2-2.8-2.3-4.2-3.5
		c-0.9-0.8-3.5-0.9-1.8-3.1c1.8-2.3,2.7,0.2,3.9,1c0.4,0.3,0.8,0.5,1.4,0.9c2.3-2.5-3.9-6.7,1.7-8.3c1.3-2.8,1-5.9,1.1-8.8
		c1.3-30.4,2.6-60.9,3.8-91.3c0.4-9.1,1.6-18.2,1.1-27.4C533.4,204.5,532.8,202.4,533.3,200.5z"/>
	<path d="M533.4,206.5c0.2-1,0.3-2.1,0.4-3.1C533.7,204.4,533.6,205.4,533.4,206.5z"/>
	<path d="M384.4,326C384.4,326,384.4,326,384.4,326c-0.2-6.1-0.5-12.2-0.7-18.3c-0.3,7.9-2.6,8.7-11.3,5.3c-0.5,9.4,1.7,18.6,1.9,28
		C380.3,337.8,385.9,334.3,384.4,326z"/>
	<path d="M383.7,307.7c-0.6-15.8-1.2-31.6-1.8-47.4c0-1.1-0.3-2.3-0.5-3.4c0,10.1-0.5,20.3,0.3,30.4c0.7,8.1,0.2,16.2,0.6,24.3
		c0,0.9-0.4,2.7-1.4,1.9c-2.9-2.3-5.8,0.1-8.6-0.4C381.1,316.4,383.4,315.6,383.7,307.7z"/>
	<path d="M517,171.7c-0.1,0.6-0.3,1.3-0.5,1.9c2.2-1,4.8-0.2,7.1,0.1c2.2,0.3,1.4,2.7,1.3,4.2c-0.3,3.5-0.8,7-1.2,10.5
		c0.7-0.8,1.7-1.1,2.9-0.4c3,1.6,7,2.8,7.2,7.2c0.1,2.7,0.3,5.4,0.1,8.1c0.9-7.9,0.7-15.8-0.1-23.7c-1-10-10.3-15.7-20.7-13.7
		C516.9,166.1,517.2,168.8,517,171.7z"/>
	<path d="M514.4,175.3c0.6-0.9,1.3-1.4,2.1-1.8c0.2-0.6,0.4-1.2,0.5-1.9c0.3-2.9,0-5.6-3.9-5.7C517.9,168.4,515.3,172,514.4,175.3z"
		/>
	<polygon points="514.4,175.3 514.4,175.3 514.4,175.3 	"/>
	<path d="M533.7,195.2c-0.1-4.4-4.1-5.6-7.2-7.2c-1.3-0.7-2.2-0.4-2.9,0.4c-0.1,0.6-0.1,1.2-0.2,1.7c1-0.6,1.4-2.7,3.1-1.2
		c3.5,3.1,8.6,5.3,6.8,11.6c-0.5,1.8,0,3.9,0.1,5.9c0.2-1,0.3-2.1,0.4-3.1C534,200.6,533.8,197.9,533.7,195.2z"/>
	<path d="M383.7,342.1c1.7-0.5,2.2,0.5,2.5,1.6c-0.1-3.7-0.4-7.4-0.9-11c-1.2,4-6.9,8.4-11.1,8.4c0.3,4.4,0.6,8.8,0.9,13.1l0,0
		C375.1,350.3,380.2,343,383.7,342.1z"/>
	<path d="M384.8,342.3c1.2,3.2-0.4,6.3,1.6,8.7c0-2.4,0-4.9-0.1-7.3c-0.3-1.1-0.8-2.1-2.5-1.6c-3.5,0.9-8.7,8.2-8.5,12.1
		C376.3,348.6,381.3,346.4,384.8,342.3z"/>
	<path d="M385.4,332.7c-0.3-2.2-0.6-4.5-1-6.7c1.5,8.3-4,11.8-10.1,15.1C378.5,341.1,384.1,336.7,385.4,332.7z"/>
	<path d="M515.2,348.9C515.2,348.9,515.2,349,515.2,348.9c1.5-0.3,3.2,0,4.8,0.7c-2.3-1.9-4.5-4.5-4.9-6.2
		C515,345.3,515.1,347.1,515.2,348.9z"/>
	<path d="M524.6,352.1c-0.5,0-1.1-0.2-1.9-0.6c0.5,0.5,0.9,1.1,1,1.7c0.5,1.9-1.1,1.9-2,2c-1.1,0.1-2.6,2.8-3.4-0.2
		c-0.5-1.9-1.1-3-3.2-3c-0.6,4-1.1,8-1.7,12c1.1-0.2,1.9-1,2.6-1.7c0.7-0.7,1.3-1.6,2-2.3c1.9-2,4.1-5.1,6.8-3.8
		c1.9,0.9,0.8,4.5,0.4,6.9c1.2-4.3,1.1-8.8,0.9-13.2C525.6,350.6,525.9,352.1,524.6,352.1z"/>
	<path d="M525,356.3c-2.7-1.3-4.9,1.8-6.8,3.8c-0.7,0.7-1.2,1.6-2,2.3c-0.8,0.7-1.6,1.5-2.6,1.7c-0.1,0.6-0.2,1.3-0.3,1.9
		c5.1-1.5,6.2-8.1,11.7-9.2c0.1,2.2,0.3,4.3,0.4,6.4c0,0,0,0,0,0C525.8,360.8,526.9,357.2,525,356.3z"/>
	<path d="M523.6,350.9c-7.2-4.6-7.2-4.6-7.2-13.7c0-1.1-0.2-2.3-0.2-3.4c-0.8,3.2-1.1,6.4-1.1,9.7c0.4,1.6,2.6,4.2,4.9,6.2
		c1.1,0.5,2.1,1.2,2.8,1.9c0.7,0.4,1.4,0.6,1.9,0.6c1.3-0.1,1-1.5,1.7-2.1C525.4,350.2,525.3,352.1,523.6,350.9z"/>
	<path d="M526.7,339.1c0.5,4.1,0,4.4-4.8,2.7c2.2,1.7,3.4,3.4,4.5,5.2c1-4.3,1.5-8.6,0.9-12.9C525.8,335.6,526.5,337.3,526.7,339.1z
		"/>
	<path d="M525.7,342.4c-0.6-0.4-1-0.7-1.4-0.9c-1.2-0.8-2.1-3.3-3.9-1c-1.7,2.2,0.9,2.2,1.8,3.1c1.4,1.2,2.8,2.3,4.2,3.5
		c-1.1-1.8-2.3-3.5-4.5-5.2c4.8,1.7,5.3,1.4,4.8-2.7c-0.2-1.8-1-3.6,0.7-5.1C521.8,335.7,528,339.9,525.7,342.4z"/>
	<path d="M383.8,262.3c-0.5,13,1.5,25.9,1.1,38.9c-0.3,8,1.6,15.9,1,23.9c-0.1,0.5-0.1,1-0.1,1.5c0.6,0.6,0.8,1.4,0.8,2.2
		c0.1,6.3,1.4,12.4,1.2,18.7c0,1-0.2,2-0.7,2.8c0.1,0.2,0.1,0.5,0.2,0.7c0.6,3.8,1.3,7.6,1.7,11.5c0.1-3.6,0.1-7.1,0-10.6
		c0.1-3,0.1-6,0-8.9c0-1.4,0-2.7,0.3-3.9c-0.1-5.3,0-10.7,0.1-16c-0.5-1.3-0.9-2.6-1.2-4c-0.2-9-1.3-17.9-1.4-26.9
		c-0.4-37.1-2.4-74.2-2-111.3c0-0.8-0.1-1.7-0.2-2.5c-0.2-2.1-1.2-3.4-3.6-3.3c-2.6,0.1-3,1.9-2.8,3.8c0.5,5.5,1.2,10.9,1.9,16.3
		c1.2,9.8,0.7,19.6,1.5,29.4c0.8,10.7,2,21.6,1.2,32.4c0,0.2,0,0.4,0,0.7C384.1,258.9,383.9,260.7,383.8,262.3z"/>
	<path d="M389.8,346.3c0-0.8,0.1-1.6,0.1-2.5c0-1.3,0.1-2.5,0.1-3.8C389.4,341.7,389.6,344,389.8,346.3z"/>
	<path d="M389.7,347.8c-0.3-2.9-0.4-5.9-0.5-8.8c-0.2,1.3-0.3,2.6-0.3,3.9c0.1,3,0.1,6,0,8.9c0.1,3.5,0.1,7.1,0,10.6
		c-0.4-3.9-1.1-7.7-1.7-11.5c-0.1-0.2-0.2-0.5-0.2-0.7c-0.2,0.3-0.4,0.5-0.7,0.8c0.4,4.4,0.8,8.9,1.4,13.3c0.1,1,0.3,2.7,1.8,2.5
		c1.7-0.1,1.1-1.7,1-2.8c0-4-0.2-7.9-0.3-11.9C389.8,350.7,389.7,349.3,389.7,347.8z"/>
	<path d="M385.8,326.5c0-0.5,0-1,0.1-1.5c0.6-8-1.2-15.9-1-23.9c0.4-13-1.6-25.9-1.1-38.9c0.1-1.6,0.2-3.4-1-4.6
		c-0.9,16.1,1,32.1,0.9,48.1c0,0.7,0,1.3,0,1.9c0.2,6.1,0.5,12.2,0.7,18.3c0,0,0,0,0,0c0,0,0,0,0,0C385,326,385.5,326.2,385.8,326.5
		z"/>
	<path d="M383.7,307.7c0-0.6,0-1.2,0-1.9c0.1-16.1-1.8-32.1-0.9-48.1c-0.3-0.3-0.8-0.6-1.4-0.8c0,0,0,0,0,0c0.2,1.1,0.5,2.3,0.5,3.4
		C382.5,276.1,383.1,291.9,383.7,307.7z"/>
	<path d="M387,350.2c0.5-0.8,0.7-1.8,0.7-2.8c0.2-6.3-1.1-12.4-1.2-18.7c0-0.8-0.2-1.7-0.8-2.2c-0.1,1.7,0,3.3-0.2,5
		c0,0.4-0.1,0.8-0.2,1.1c0.5,3.7,0.8,7.4,0.9,11c0,0.1,0.1,0.3,0.1,0.4C386.8,346.1,386.5,348.2,387,350.2z"/>
	<path d="M386.4,344.1c0-0.1-0.1-0.3-0.1-0.4c0.1,2.4,0.1,4.9,0.1,7.3c0.3-0.2,0.5-0.5,0.7-0.8C386.5,348.2,386.8,346.1,386.4,344.1
		z"/>
	<path d="M385.8,326.5c-0.3-0.3-0.8-0.5-1.4-0.6c0,0,0,0,0,0c0.4,2.2,0.7,4.5,1,6.7c0.1-0.4,0.2-0.8,0.2-1.1
		C385.8,329.9,385.7,328.2,385.8,326.5z"/>
	<path d="M390.3,336c0.3-0.6,0.8-1.2,1.3-1.8c2.1-2.3,2.2-4.8,0.1-7.1c-0.4-0.5-0.8-1-1.2-1.6C391,329,390.7,332.5,390.3,336z"/>
	<path d="M391.8,327c2.1,2.4,2,4.8-0.1,7.1c-0.5,0.6-1,1.2-1.3,1.8c-0.1,1.4-0.3,2.7-0.3,4.1c0.2-0.5,0.4-1,0.8-1.3
		c6.8-7.2,2.1-12.5-1-18.4c-0.1-0.1-0.2-0.2-0.3-0.4c0.7,1.8,1,3.6,1.2,5.4C390.9,326,391.3,326.5,391.8,327z"/>
	<path d="M390.2,352.2c0-1.8-0.2-3.9-0.4-5.9c0,0.5,0,1,0,1.4C389.9,349.3,390,350.7,390.2,352.2z"/>
	<path d="M389.3,339c0.2-1,0.5-2,1.1-3c0.3-3.5,0.6-7,0.3-10.5c-0.5-0.8-0.9-1.6-1.3-2.5C389.3,328.3,389.2,333.7,389.3,339z"/>
	<path d="M390.6,325.5c-0.2-1.8-0.6-3.6-1.2-5.4c0,1,0,2,0,3C389.7,323.8,390.1,324.7,390.6,325.5z"/>
	<path d="M389.3,339c0.1,2.9,0.2,5.9,0.5,8.8c0-0.5,0-1,0-1.4c-0.2-2.4-0.4-4.6,0.2-6.3c0.1-1.4,0.2-2.7,0.3-4.1
		C389.8,336.9,389.5,338,389.3,339z"/>
	<path d="M512,362.5c1.7-9.4,1.3-18.9,1.6-28.3c0.8-30.9,1.6-61.7,2-92.6c0.3-21.7,1.7-43.5,0.3-65.2c0-0.4,0-0.7,0.1-1.1
		c-0.5,0.1-1.1,0.2-1.6,0c1.1,11.3,0.3,22.6,0.1,33.9c-0.9,44.1-1.8,88.1-2.8,132.2c-0.2,7.6-0.7,15.3-1,22.9
		c-0.1,1.9-0.3,4.3,2.6,1.7c-0.2-0.6-0.4-1.3-0.5-1.9C512.2,363.7,511.9,363.2,512,362.5z"/>
	<polygon points="514.4,175.3 514.4,175.3 514.4,175.3 	"/>
	<path d="M522.2,190.7c-2.2,6.5-1.2,13.2-1.7,19.8c-1.5,19.2-3,38.4-2.8,57.7c0,2.8,0.1,5.6-0.2,8.5c-1.4,18.9-1.5,37.8-2.8,56.7
		c0,0.4,0,0.9,0.1,1.3c0.3-0.3,0.7-0.6,1.3-0.7c0,0,0,0,0,0c0,0,0,0,0,0c2.1-29,2.5-58.1,3.7-87.1c0.8-18.9,2.3-37.8,3.6-56.7
		c-0.2-0.2-0.4-0.5-0.5-0.7C522.6,189.8,522.4,190.2,522.2,190.7z"/>
	<path d="M523.5,173.6c-2.3-0.3-4.9-1.1-7.1-0.1c-0.2,0.6-0.4,1.1-0.5,1.7c0.1,0,0.2,0,0.3-0.1c7.1-1.5,7.7-0.8,6.7,6.5
		c-0.3,2.5-1.8,5.2-0.2,7.7c0.2-0.4,0.5-0.7,0.7-1c0.4-3.5,0.9-7,1.2-10.5C525,176.3,525.8,173.9,523.5,173.6z"/>
	<path d="M516,175.3c0.1-0.6,0.3-1.2,0.5-1.7c-0.7,0.3-1.4,0.9-2.1,1.8c0,0,0,0,0,0l0,0C514.9,175.4,515.5,175.4,516,175.3z"/>
	<path d="M522.9,189.4c0.2,0.2,0.3,0.5,0.5,0.7c0.1-0.6,0.1-1.2,0.2-1.7C523.3,188.7,523.1,189,522.9,189.4z"/>
	<path d="M514.8,334.6c-0.9,0.9-0.9,2.4-0.9,3.7c-0.2,3.1-0.4,6.2,0.3,9.3c0.2,0.6,0.5,1,0.9,1.3c-0.1-1.8-0.1-3.6-0.1-5.4
		c0-0.1-0.1-0.3-0.1-0.4C514.9,340.3,515,337.4,514.8,334.6z"/>
	<path d="M514.3,352.6c-1.3,3.8-2.4,7.6-1.5,11.5c0,0,0,0,0,0c0.3,0,0.5,0,0.8,0c0.6-4,1.1-8,1.7-12c0-0.1,0-0.1,0-0.2
		C514.9,352,514.6,352.3,514.3,352.6z"/>
	<path d="M512.8,364.1C512.8,364.1,512.8,364.1,512.8,364.1c0.1,0.6,0.3,1.3,0.5,1.9c0.1-0.6,0.2-1.3,0.3-1.9
		C513.3,364.1,513.1,364.1,512.8,364.1z"/>
	<path d="M514.8,334.6c0.1,2.8,0,5.7,0.2,8.5c0,0.1,0,0.3,0.1,0.4c0-3.2,0.3-6.5,1.1-9.7c0,0,0,0,0,0
		C515.6,334,515.2,334.2,514.8,334.6z"/>
	<path d="M515.5,351.7c1.4-0.6,2.5,0.5,3.5,1.8c0.6,0.7,1.3,1.3,2.1,0.6c1.1-1,0-1.6-0.5-2.5c-1.1-2-3.8-1.4-5.4-2.6
		c0,0-0.1,0-0.1,0C516.1,349.9,516.1,350.8,515.5,351.7z"/>
	<path d="M515.3,349c1.6,1.2,4.2,0.6,5.4,2.6c0.5,0.8,1.5,1.5,0.5,2.5c-0.8,0.7-1.5,0.1-2.1-0.6c-1-1.3-2.1-2.4-3.5-1.8
		c-0.1,0.1-0.2,0.2-0.3,0.4c2,0,2.7,1.2,3.2,3c0.7,2.9,2.3,0.2,3.4,0.2c0.9-0.1,2.5-0.1,2-2c-0.2-0.6-0.5-1.2-1-1.7
		c-0.9-0.4-1.8-1.1-2.8-1.9C518.4,348.9,516.7,348.6,515.3,349z"/>
	<path d="M520,349.7c1,0.8,1.9,1.5,2.8,1.9C522.1,350.8,521.1,350.1,520,349.7z"/>
	<path d="M515.2,349c0,0.9,0,1.9,0,2.8c0.1-0.1,0.2-0.1,0.3-0.1C516.1,350.8,516.1,349.9,515.2,349z"/>
	<path d="M515.2,351.8c0,0.1,0,0.1,0,0.2c0.1-0.1,0.2-0.2,0.3-0.4C515.4,351.7,515.3,351.8,515.2,351.8z"/>
</g>
</svg>
